<?xml version="1.0" ?><!DOCTYPE svg  PUBLIC '-//W3C//DTD SVG 20010904//EN'  'http://www.w3.org/TR/2001/REC-SVG-20010904/DTD/svg10.dtd' [
	<!ENTITY stroke_color "#666666">
	<!ENTITY fill_color "#000000">
]><svg xmlns="http://www.w3.org/2000/svg" version="1.0" width="177.000000pt" height="177.000000pt" viewBox="0 0 177.000000 177.000000" preserveAspectRatio="xMidYMid meet" style="">
<metadata style="">
Created by potrace 1.16, written by Peter Selinger 2001-2019
</metadata>
<g transform="translate(0.000000,177.000000) scale(0.100000,-0.100000)" fill="&fill_color;" stroke="&stroke_color;">
<path d="M135 1736 c-40 -17 -84 -63 -101 -103 -11 -26 -14 -167 -14 -744 -1 -698 0 -712 20 -754 12 -25 38 -55 62 -71 l41 -29 736 0 736 0 36 24 c20 14 47 41 60 60 l24 35 3 710 c2 391 0 726 -3 744 -8 42 -59 100 -110 123 -37 17 -84 19 -750 18 -567 0 -716 -2 -740 -13z m465 -286 l0 -250 -265 0 -265 0 0 198 c0 220 6 241 72 282 30 18 51 20 246 20 l212 0 0 -250z m530 0 l0 -250 -240 0 -240 0 0 250 0 250 240 0 240 0 0 -250z m480 232 c19 -9 45 -32 57 -51 22 -32 23 -43 23 -232 l0 -199 -255 0 -255 0 0 250 0 250 198 0 c168 0 202 -3 232 -18z m-1010 -757 l0 -225 -265 0 -265 0 0 225 0 225 265 0 265 0 0 -225z m530 0 l0 -225 -240 0 -240 0 0 225 0 225 240 0 240 0 0 -225z m560 0 l0 -225 -255 0 -255 0 0 225 0 225 255 0 255 0 0 -225z m-1090 -560 l0 -285 -210 0 c-227 0 -241 3 -290 55 l-25 27 -3 244 -3 244 266 0 265 0 0 -285z m530 0 l0 -285 -240 0 -240 0 0 285 0 285 240 0 240 0 0 -285z m558 41 l-3 -244 -25 -27 c-48 -52 -64 -55 -280 -55 l-200 0 0 285 0 285 255 0 256 0 -3 -244z" style=""/>
</g>
</svg>
